<?xml version="1.0" standalone="no"?>
<!DOCTYPE svg PUBLIC "-//W3C//DTD SVG 20010904//EN"
 "http://www.w3.org/TR/2001/REC-SVG-20010904/DTD/svg10.dtd">
<svg version="1.0" xmlns="http://www.w3.org/2000/svg"
 width="512.000000pt" height="512.000000pt" viewBox="0 0 512.000000 512.000000"
 preserveAspectRatio="xMidYMid meet">

<g transform="translate(0.000000,512.000000) scale(0.100000,-0.100000)"
fill="#9BA1A6" stroke="none">
<path d="M2405 4163 c-267 -22 -496 -83 -710 -188 -434 -214 -688 -596 -760
-1143 -31 -233 -16 -624 36 -932 66 -394 224 -931 277 -942 9 -1 295 -1 634 2
l618 5 -86 180 c-218 457 -323 758 -385 1110 -33 183 -33 491 -2 606 77 276
258 402 573 401 334 -2 510 -155 527 -457 15 -274 -91 -458 -307 -531 -44 -15
-83 -19 -202 -18 -82 0 -148 -1 -148 -3 0 -19 65 -268 89 -340 54 -163 112
-303 126 -303 38 0 260 33 339 51 234 52 531 176 717 301 316 211 475 553 456
982 -13 283 -86 499 -234 694 -268 351 -736 536 -1343 530 -96 -1 -193 -3
-215 -5z"/>
</g>
</svg>
